<?xml version="1.0" standalone="no"?>
<!DOCTYPE svg PUBLIC "-//W3C//DTD SVG 20010904//EN"
 "http://www.w3.org/TR/2001/REC-SVG-20010904/DTD/svg10.dtd">
<svg version="1.0" xmlns="http://www.w3.org/2000/svg"
 width="690.000000pt" height="690.000000pt" viewBox="0 0 690.000000 690.000000"
 preserveAspectRatio="xMidYMid meet">
<metadata>
Created by potrace 1.14, written by Peter Selinger 2001-2017
</metadata>
<g transform="translate(0.000000,690.000000) scale(0.100000,-0.100000)"
fill="#000000" stroke="none">
<path d="M3080 6519 c-703 -72 -1369 -386 -1855 -874 -325 -325 -544 -662
-715 -1096 l-20 -49 33 0 c31 0 33 3 61 78 65 176 212 448 336 622 327 457
768 814 1275 1030 343 146 682 224 1030 238 491 21 903 -53 1340 -238 616
-262 1136 -735 1459 -1325 63 -116 159 -327 172 -380 5 -21 12 -25 40 -25 l34
0 -21 53 c-12 28 -25 63 -30 76 -58 148 -193 399 -300 556 -517 761 -1333
1243 -2258 1335 -121 12 -459 11 -581 -1z"/>
<path d="M3125 6280 c-797 -81 -1492 -462 -1983 -1087 -58 -74 -198 -288 -245
-376 -36 -66 -147 -303 -147 -313 0 -3 14 -4 31 -2 29 3 34 10 78 108 267 598
784 1112 1389 1380 371 163 730 240 1132 240 617 0 1190 -195 1695 -578 134
-102 411 -381 510 -514 132 -176 231 -344 323 -545 39 -87 44 -93 71 -93 29 0
30 1 19 31 -21 62 -168 346 -223 434 -257 406 -634 760 -1047 983 -293 159
-658 276 -1003 322 -110 15 -490 21 -600 10z"/>
<path d="M1240 4441 c-212 -83 -521 -435 -640 -731 -12 -30 -29 -70 -37 -88
-30 -68 -83 -268 -90 -337 -6 -68 17 -231 45 -317 10 -30 39 -87 64 -125 40
-60 55 -74 115 -105 82 -43 107 -49 215 -50 74 -1 83 1 83 17 0 20 26 33 68
34 15 1 30 8 33 16 4 8 16 15 29 15 12 0 48 9 80 20 32 11 69 20 82 20 27 0
113 47 113 61 0 15 60 40 81 34 13 -4 19 -2 17 6 -2 7 29 24 72 41 40 16 93
44 116 63 l41 34 6 -89 c7 -110 30 -159 90 -195 50 -29 120 -33 170 -11 18 8
49 19 69 26 20 6 42 18 48 26 7 7 17 14 22 14 23 0 125 91 142 126 11 22 23
46 27 54 40 71 50 98 58 157 9 59 14 72 42 95 36 30 33 48 -5 30 -24 -11 -25
-10 -30 36 -11 89 -36 176 -63 211 -83 114 -141 148 -259 156 -108 7 -190 -31
-229 -106 -20 -38 -30 -172 -16 -207 10 -25 9 -38 -9 -88 -12 -32 -32 -96 -43
-141 l-22 -83 -110 -46 c-202 -85 -252 -103 -376 -139 -221 -63 -318 -72 -454
-43 -97 20 -176 84 -216 173 -43 96 -25 317 42 520 17 50 37 100 45 112 8 12
14 26 14 31 0 19 97 181 163 272 175 242 400 420 531 420 16 0 53 -14 83 -31
67 -38 83 -31 64 30 -7 25 -26 52 -49 70 -33 28 -43 31 -107 31 -42 -1 -88 -8
-115 -19z m700 -866 c0 -3 -14 -24 -31 -48 -17 -23 -37 -57 -45 -75 -7 -18
-18 -31 -24 -27 -15 9 -12 51 5 84 17 35 95 88 95 66z m251 -32 c67 -30 84
-43 105 -78 23 -40 47 -164 37 -191 -8 -21 -81 -44 -163 -50 -69 -5 -97 -2
-146 14 -63 20 -144 75 -144 98 0 23 68 128 107 165 30 29 102 76 121 79 1 0
39 -16 83 -37z m-211 -374 c39 -12 119 -30 135 -29 50 0 118 20 135 38 12 12
25 22 30 22 4 0 16 3 26 7 15 5 16 2 10 -33 -5 -21 -12 -44 -17 -50 -5 -7 -9
-16 -8 -20 2 -9 -7 -30 -40 -94 -10 -19 -16 -41 -13 -48 4 -11 0 -13 -15 -8
-13 4 -25 0 -34 -10 -8 -10 -54 -37 -103 -61 -78 -37 -98 -43 -155 -43 -108 0
-151 41 -158 149 -5 72 14 167 48 233 l19 38 53 -40 c28 -22 68 -45 87 -51z
m-1090 -395 c0 -2 -7 -4 -15 -4 -8 0 -15 4 -15 10 0 5 7 7 15 4 8 -4 15 -8 15
-10z"/>
<path d="M1637 4082 c29 -23 83 -135 83 -172 0 -18 -6 -33 -15 -36 -30 -12
-14 -24 30 -24 25 0 45 5 45 10 0 6 -7 10 -15 10 -11 0 -15 11 -15 42 0 46 46
140 84 170 21 17 20 18 -21 18 -39 0 -58 -13 -32 -22 11 -4 -29 -98 -42 -98
-3 0 -16 21 -27 47 -19 44 -19 48 -4 60 14 10 8 12 -38 12 -54 1 -55 0 -33
-17z"/>
<path d="M1913 4080 c-41 -24 -63 -67 -63 -121 0 -34 6 -47 35 -76 32 -32 40
-35 78 -31 60 7 93 32 113 84 14 38 15 51 5 85 -21 71 -102 100 -168 59z m111
-30 c13 -12 21 -37 24 -72 3 -46 1 -56 -22 -80 -72 -78 -181 27 -132 128 26
56 87 67 130 24z"/>
<path d="M2120 4090 c0 -5 5 -10 10 -10 6 0 10 -29 10 -67 0 -91 14 -137 46
-151 44 -21 83 -15 115 17 28 28 29 34 29 115 0 51 4 86 10 86 6 0 10 5 10 10
0 6 -18 10 -40 10 -22 0 -40 -4 -40 -10 0 -5 7 -10 15 -10 12 0 15 -15 17 -67
2 -97 0 -106 -23 -125 -27 -23 -51 -23 -80 1 -22 17 -23 25 -21 102 1 46 7 86
12 87 25 9 6 22 -30 22 -22 0 -40 -4 -40 -10z"/>
<path d="M2400 4090 c0 -5 5 -10 10 -10 6 0 10 -42 10 -105 0 -87 -3 -105 -15
-105 -8 0 -15 -4 -15 -10 0 -5 20 -10 45 -10 25 0 45 5 45 10 0 6 -7 10 -15
10 -11 0 -15 12 -15 45 0 62 21 59 65 -10 28 -45 40 -55 62 -55 l28 0 -23 18
c-12 10 -33 35 -46 56 l-23 38 29 28 c60 60 21 110 -86 110 -31 0 -56 -4 -56
-10z m118 -22 c7 -7 12 -24 12 -38 0 -34 -17 -50 -52 -50 -24 0 -28 4 -28 28
0 49 11 72 34 72 12 0 27 -5 34 -12z"/>
<path d="M2566 3697 c-22 -16 -70 -254 -60 -299 3 -14 0 -29 -5 -33 -6 -3 -11
-16 -11 -28 0 -12 -9 -47 -20 -77 -11 -30 -29 -89 -41 -130 -11 -41 -34 -119
-51 -173 l-32 -98 36 -36 c23 -22 42 -34 52 -30 8 3 24 37 36 75 11 38 44 110
74 159 29 50 65 122 78 161 14 39 31 78 37 86 7 8 10 20 6 26 -4 7 3 18 15 27
15 11 20 22 16 38 -4 15 -1 25 9 29 8 3 15 12 15 19 0 8 7 20 15 27 13 11 15
8 9 -26 -3 -22 -10 -58 -15 -81 -5 -24 -8 -46 -7 -50 0 -5 -2 -16 -7 -26 -4
-10 -5 -63 -2 -117 6 -121 33 -180 101 -223 64 -40 94 -36 139 18 49 58 120
163 147 216 18 34 19 43 8 51 -10 8 -10 9 2 5 8 -2 23 2 33 11 9 8 20 12 25 7
4 -4 1 -10 -5 -12 -8 -3 -13 -22 -13 -48 0 -24 -5 -45 -11 -47 -12 -4 -20
-124 -10 -143 2 -5 4 -28 2 -50 -1 -28 3 -46 13 -54 9 -8 16 -21 16 -31 0 -10
20 -34 45 -54 34 -28 50 -35 69 -30 23 5 24 4 21 -43 -2 -26 -8 -68 -14 -93
-13 -53 -80 -417 -88 -475 -3 -22 -10 -45 -14 -51 -5 -7 4 -25 25 -49 30 -33
37 -37 50 -26 9 8 16 24 16 37 0 13 9 64 20 113 11 48 19 101 19 117 -1 16 11
74 26 129 15 55 30 116 35 135 12 54 51 183 60 200 5 10 20 14 46 13 91 -6
182 31 285 117 88 73 100 89 173 235 30 58 38 87 46 174 7 68 8 113 1 130 -5
14 -12 39 -16 55 -9 42 -68 130 -104 156 -47 32 -96 36 -164 10 -32 -12 -63
-30 -70 -41 -6 -10 -17 -19 -23 -19 -6 0 -18 -10 -27 -22 -12 -19 -24 -23 -63
-23 l-49 0 -7 -93 c-4 -60 -14 -111 -27 -142 -25 -58 -26 -71 -6 -64 11 5 13
2 9 -9 -3 -9 -12 -13 -19 -11 -9 4 -18 -11 -28 -48 -13 -47 -72 -298 -83 -355
-7 -35 -40 -29 -61 10 -12 24 -17 58 -17 137 -1 112 -1 113 115 493 21 71 39
139 39 152 0 26 -42 65 -70 65 -25 0 -35 -16 -55 -85 -14 -51 -38 -109 -86
-207 -40 -81 -162 -283 -206 -339 -48 -61 -98 -103 -113 -94 -59 36 -61 209
-7 472 44 209 44 243 6 257 -15 5 -34 6 -43 3 -15 -6 -127 -225 -201 -392 -14
-32 -27 -56 -30 -54 -4 5 16 119 46 250 25 115 25 179 -1 207 -24 26 -30 27
-54 9z m1251 -109 c12 -13 33 -45 48 -73 22 -43 26 -62 26 -140 0 -49 -5 -105
-11 -124 -14 -50 -5 -49 14 1 l16 43 -5 -44 c-12 -97 -55 -185 -130 -264 -48
-51 -57 -40 -12 15 45 56 110 174 104 190 -3 7 -10 0 -16 -16 -21 -54 -99
-161 -154 -213 -61 -58 -162 -113 -207 -113 -16 0 -30 2 -30 4 0 2 7 23 16 47
24 69 62 262 78 407 9 73 20 140 25 150 15 28 113 120 146 136 42 22 68 20 92
-6z m108 -435 c-8 -35 -26 -55 -19 -22 9 39 13 49 20 49 3 0 3 -12 -1 -27z
m-474 -54 c-9 -22 -10 -22 -10 -3 -1 11 2 24 6 27 12 12 14 0 4 -24z m433 -44
c-4 -8 -8 -15 -10 -15 -2 0 -4 7 -4 15 0 8 4 15 10 15 5 0 7 -7 4 -15z m-444
-26 c0 -11 -4 -18 -10 -14 -5 3 -7 12 -3 20 7 21 13 19 13 -6z m0 -35 c0 -3
-5 -15 -12 -27 -7 -12 -13 -29 -15 -38 -4 -25 -23 -72 -27 -68 -4 4 17 96 29
127 4 12 25 17 25 6z m-73 -246 c-3 -7 -5 -2 -5 12 0 14 2 19 5 13 2 -7 2 -19
0 -25z m13 -53 c0 -8 -4 -15 -10 -15 -5 0 -7 7 -4 15 4 8 8 15 10 15 2 0 4 -7
4 -15z m-40 -175 c0 -5 -4 -10 -10 -10 -5 0 -10 5 -10 10 0 6 5 10 10 10 6 0
10 -4 10 -10z m-23 -52 c-3 -8 -6 -5 -6 6 -1 11 2 17 5 13 3 -3 4 -12 1 -19z"/>
<path d="M6211 3627 c-13 -39 -44 -103 -69 -142 -25 -38 -63 -99 -84 -134 -38
-61 -132 -178 -215 -267 -63 -67 -195 -164 -224 -164 -15 0 -15 6 -4 58 31
145 109 344 171 437 36 52 42 80 22 88 -67 25 -166 -159 -258 -481 -19 -66
-24 -74 -61 -93 -55 -28 -79 -22 -106 26 -22 38 -23 49 -20 195 1 87 11 211
22 282 18 120 18 130 2 163 -15 31 -21 35 -56 35 -43 0 -64 -21 -167 -165 -85
-120 -98 -143 -264 -460 -42 -81 -105 -181 -120 -190 -37 -23 33 292 110 495
16 41 39 110 51 153 26 86 23 100 -24 127 -51 29 -62 9 -142 -260 -21 -69 -43
-143 -51 -166 -7 -22 -20 -78 -28 -124 -9 -46 -17 -84 -19 -86 -16 -13 -71
-34 -90 -34 -33 0 -47 36 -47 121 0 88 21 189 72 348 44 139 56 200 40 210 -6
3 -60 8 -121 9 -127 3 -155 -5 -232 -70 -153 -129 -269 -353 -286 -554 -9
-108 2 -158 45 -206 31 -34 40 -39 66 -34 39 8 126 67 171 117 35 39 125 203
136 249 8 32 13 17 27 -74 12 -74 43 -132 94 -169 l26 -20 46 26 46 26 0 -43
c0 -50 22 -83 73 -110 52 -29 79 -17 101 43 9 27 23 52 31 54 7 3 19 18 28 34
8 15 45 87 82 158 37 72 73 137 79 145 7 8 18 27 26 43 7 15 19 27 26 27 7 0
10 8 7 19 -3 11 2 21 11 24 9 4 13 13 10 21 -5 13 64 123 117 186 l21 25 -6
-65 c-4 -36 -11 -105 -16 -153 -9 -87 -6 -202 6 -262 17 -80 107 -175 167
-175 16 0 45 9 63 21 28 17 34 18 34 5 0 -27 21 -63 44 -76 74 -39 282 102
441 298 28 34 51 57 53 52 5 -14 -35 -134 -150 -445 -110 -302 -129 -346 -175
-425 -18 -30 -33 -58 -33 -63 0 -4 -21 -42 -46 -85 -77 -128 -231 -272 -291
-272 -29 0 -29 -14 -1 -34 25 -18 59 -21 86 -7 9 4 43 21 76 37 139 69 320
375 460 779 37 105 84 240 105 300 22 61 53 157 71 215 17 58 42 139 55 180
35 110 62 210 70 255 5 33 2 46 -15 68 -12 15 -27 27 -33 27 -7 0 -23 -33 -36
-73z m-1663 -120 c-9 -18 -26 -69 -38 -112 -39 -138 -187 -412 -265 -490 -22
-23 -62 -56 -89 -74 -61 -43 -71 -34 -69 63 1 94 40 233 99 353 37 75 59 104
122 165 42 40 100 84 127 97 27 13 61 32 74 43 22 17 26 17 40 4 13 -14 13
-19 -1 -49z m762 -101 c0 -3 -4 -8 -10 -11 -5 -3 -10 -1 -10 4 0 6 5 11 10 11
6 0 10 -2 10 -4z m-13 -73 c-3 -10 -5 -4 -5 12 0 17 2 24 5 18 2 -7 2 -21 0
-30z m-7 -89 c0 -30 -3 -53 -7 -51 -8 5 -5 107 3 107 2 0 4 -25 4 -56z m690
-99 c-7 -9 -15 -13 -17 -11 -7 7 7 26 19 26 6 0 6 -6 -2 -15z m-37 -38 c-8
-13 -85 -49 -91 -42 -4 4 13 25 38 46 39 33 46 36 51 21 4 -9 5 -20 2 -25z
m-172 -128 c-19 -16 -37 -26 -40 -23 -3 3 10 18 29 34 19 16 37 26 40 23 3 -3
-10 -18 -29 -34z"/>
<path d="M4100 2480 c0 -5 7 -10 15 -10 23 0 22 -186 -2 -212 -15 -17 -13 -18
64 -18 l81 0 7 36 c8 46 1 54 -17 17 -10 -22 -21 -29 -51 -31 l-37 -3 0 97 c0
77 4 101 17 116 15 17 14 18 -30 18 -26 0 -47 -4 -47 -10z"/>
<path d="M4353 2470 c-41 -24 -63 -67 -63 -121 0 -34 6 -47 35 -76 33 -33 39
-35 81 -30 83 9 135 88 113 170 -18 69 -100 97 -166 57z m81 -10 c47 -17 71
-102 44 -153 -41 -77 -136 -53 -154 38 -11 59 27 120 78 124 4 1 18 -3 32 -9z"/>
<path d="M4624 2471 c-45 -28 -64 -60 -64 -108 0 -80 40 -123 114 -123 67 0
84 13 87 69 l4 51 -42 0 c-24 0 -43 -4 -43 -10 0 -5 11 -10 25 -10 22 0 25 -4
25 -34 0 -36 -12 -46 -55 -46 -69 0 -112 114 -66 172 36 45 131 47 131 3 0
-26 17 -16 23 13 3 15 3 29 1 31 -2 2 -28 6 -57 8 -39 3 -60 -1 -83 -16z"/>
<path d="M4894 2480 c-11 -4 -33 -22 -47 -40 -46 -55 -33 -156 24 -186 40 -20
81 -17 120 9 43 29 59 60 59 116 0 36 -6 49 -34 77 -35 35 -75 43 -122 24z
m70 -21 c59 -27 72 -132 21 -176 -57 -50 -124 -11 -133 75 -4 47 -2 54 26 82
33 33 48 36 86 19z"/>
<path d="M590 2188 c0 -23 144 -285 224 -407 45 -69 120 -173 166 -231 101
-128 351 -379 481 -482 352 -281 788 -494 1209 -592 668 -155 1336 -93 1955
183 360 161 633 349 921 636 170 169 279 301 400 486 80 122 224 384 224 407
0 7 -12 12 -28 12 -25 0 -32 -9 -76 -97 -88 -180 -191 -340 -334 -523 -97
-123 -338 -364 -472 -470 -636 -506 -1446 -734 -2251 -635 -546 68 -1075 290
-1509 635 -132 105 -374 346 -471 470 -143 181 -246 343 -335 523 -44 88 -51
97 -76 97 -16 0 -28 -5 -28 -12z"/>
<path d="M895 2113 c265 -488 698 -910 1195 -1163 395 -200 763 -294 1200
-307 392 -11 722 42 1077 172 137 51 398 180 521 259 409 261 751 625 976
1039 l48 87 -34 0 c-31 0 -36 -5 -72 -73 -56 -103 -172 -278 -251 -377 -271
-339 -581 -587 -969 -776 -578 -281 -1214 -353 -1836 -208 -504 118 -955 370
-1331 744 -182 181 -309 346 -442 576 -58 101 -66 109 -96 112 l-33 3 47 -88z"/>
</g>
</svg>
